<svg xmlns="http://www.w3.org/2000/svg" version="1.1" xmlns:xlink="http://www.w3.org/1999/xlink" xmlns:svgjs="http://svgjs.dev/svgjs" width="2000" height="1247" viewBox="0 0 2000 1247"><g transform="matrix(1,0,0,1,-1.2121212121212466,0.504858299595071)"><svg viewBox="0 0 396 247" data-background-color="#dedede" preserveAspectRatio="xMidYMid meet" height="1247" width="2000" xmlns="http://www.w3.org/2000/svg" xmlns:xlink="http://www.w3.org/1999/xlink"><g id="tight-bounds" transform="matrix(1,0,0,1,0.2400000000000091,-0.09999999999999432)"><svg viewBox="0 0 395.52 247.2" height="247.2" width="395.52"><g><svg></svg></g><g><svg viewBox="0 0 395.52 247.2" height="247.2" width="395.52"><g transform="matrix(1,0,0,1,75.54432,77.7166798215923)"><svg viewBox="0 0 244.43135999999998 91.76664035681539" height="91.76664035681539" width="244.43135999999998"><g><svg viewBox="0 0 244.43135999999998 91.76664035681539" height="91.76664035681539" width="244.43135999999998"><g><svg viewBox="0 0 406.3615309977546 152.55993531237496" height="91.76664035681539" width="244.43135999999998"><g transform="matrix(1,0,0,1,0,39.48307057167833)"><svg viewBox="0 0 244.43135999999998 73.5937941690183" height="73.5937941690183" width="244.43135999999998"><g><svg viewBox="0 0 244.43135999999998 73.5937941690183" height="73.5937941690183" width="244.43135999999998"><g><svg viewBox="0 0 244.43135999999998 39.69297599937559" height="39.69297599937559" width="244.43135999999998"><g transform="matrix(1,0,0,1,0,0)"><svg width="244.43135999999998" viewBox="-1.7100000381469727 -39.060001373291016 321.7058410644531 52.2400016784668" height="39.69297599937559" data-palette-color="#374151"><path d="M2.91-0.17L2.91-0.17Q2 0.49 0.84 0.49-0.32 0.49-1.01-0.11-1.71-0.71-1.71-1.49-1.71-2.27-1.46-2.64L-1.46-2.64Q-0.76-2.22 0.28-2.22 1.32-2.22 1.84-2.5 2.37-2.78 2.86-3.27L2.86-3.27 6.32-13.55 6.81-15.23Q7.03-15.99 7.03-16.63L7.03-16.63Q7.03-18.85 4.93-19.46L4.93-19.46Q6.86-20.19 7.64-21.04L7.64-21.04Q8.86-22.39 9.57-24.58L9.57-24.58 12.26-33.59Q11.47-34.64 10.4-34.64 9.33-34.64 8.4-34.18L8.4-34.18Q8.15-34.62 8.15-35.17 8.15-35.72 8.39-36.21 8.62-36.69 9.03-37.06L9.03-37.06Q9.96-37.84 11.67-37.84 13.38-37.84 14.58-36.82L14.58-36.82Q15.8-37.84 17.61-37.84 19.43-37.84 20.51-36.87L20.51-36.87Q22.07-37.84 23.68-37.84 25.29-37.84 26.18-37.23 27.08-36.62 27.08-35.57L27.08-35.57Q27.08-35.08 26.78-34.72L26.78-34.72Q26.22-35.13 25.46-35.13L25.46-35.13Q23.83-35.13 23.34-32.91L23.34-32.91 26.46-22.92Q27.05-21.04 29.39-20L29.39-20Q30.05-19.7 30.74-19.46L30.74-19.46Q28.3-18.65 28.3-17.04L28.3-17.04Q28.3-16.43 28.49-15.97L28.49-15.97 33.15-3.47Q34.23-2.34 35.33-2.34 36.43-2.34 37.04-2.76L37.04-2.76Q37.3-2.56 37.3-2.03 37.3-1.49 37.13-1.04 36.96-0.59 36.6-0.24L36.6-0.24Q35.82 0.49 34.3 0.49 32.79 0.49 31.67-0.34L31.67-0.34Q30.4 0.49 28.8 0.49 27.2 0.49 26.05-0.32L26.05-0.32Q24.95 0.49 23.46 0.49 21.97 0.49 21-0.13 20.02-0.76 19.97-1.9L19.97-1.9Q19.97-2.59 20.24-2.76L20.24-2.76Q20.9-2.34 21.58-2.34L21.58-2.34Q23.02-2.34 23.61-2.93L23.61-2.93 21.75-9.16 8.54-9.16 6.93-3.76Q7.93-2.22 9.36-2.22 10.79-2.22 11.5-2.64L11.5-2.64Q11.77-2.2 11.77-1.43 11.77-0.66 11.01-0.09 10.25 0.49 9.06 0.49 7.86 0.49 6.86-0.12L6.86-0.12Q5.98 0.49 4.85 0.49 3.71 0.49 2.91-0.17ZM9.52-12.45L20.75-12.45 15.09-31.27 9.52-12.45ZM24.15-10.03L25.42-6.47Q25.85-6.47 25.85-7.45L25.85-7.45Q25.85-9.16 25.34-10.77L25.34-10.77 24.41-13.62Q23.44-16.85 23.44-17.68L23.44-17.68Q23.41-19.04 24.63-19.48L24.63-19.48Q22.95-19.82 22.58-20.53L22.58-20.53Q22.41-20.83 22.3-21 22.19-21.17 22.08-21.4 21.97-21.63 21.83-22 21.68-22.36 21.44-23.05L21.44-23.05 19.92-27.61Q19.38-29.32 18.33-30.2L18.33-30.2Q18.02-30.47 17.75-30.52L17.75-30.52Q19.38-24.61 19.9-22.95L19.9-22.95Q23.44-12.06 24.15-10.03L24.15-10.03ZM32.67-4.13L32.62-4.27 32.67-4.13ZM42.38-0.29L42.38-0.29Q41.26 0.49 39.82 0.49 38.38 0.49 37.73-0.18 37.08-0.85 37.08-1.46L37.08-1.46Q37.08-2.27 37.35-2.64L37.35-2.64Q37.89-2.22 38.72-2.22L38.72-2.22Q40.28-2.22 40.74-3.74L40.74-3.74 40.74-11.33Q40.74-12.4 40.28-12.89L40.28-12.89Q39.57-13.7 37.77-14.58L37.77-14.58Q39.48-15.36 39.94-15.82L39.94-15.82Q40.74-16.63 40.74-17.8L40.74-17.8 40.74-21.36Q40.74-23.44 39.33-23.61L39.33-23.61Q38.91-23.66 38.28-23.66 37.64-23.66 37.11-23.24L37.11-23.24Q36.77-23.71 36.77-24.21 36.77-24.71 37.02-25.33 37.28-25.95 37.79-26.51L37.79-26.51Q39.08-27.83 40.78-27.83 42.48-27.83 43.6-27.29L43.6-27.29Q44.94-28.81 46.34-28.81 47.73-28.81 48.26-28.16 48.8-27.51 48.8-26.17L48.8-26.17 48.8-23.88Q50.07-26.15 52.27-27.48 54.47-28.81 56.93-28.81 59.4-28.81 60.9-28.16 62.4-27.51 63.38-26.32L63.38-26.32Q65.28-23.95 65.28-19.43L65.28-19.43 65.28-17.82Q65.28-16.65 65.79-16.14L65.79-16.14Q66.55-15.36 68.26-14.58L68.26-14.58Q66.43-13.67 65.96-13.21L65.96-13.21Q65.28-12.45 65.28-11.38L65.28-11.38 65.28-3.74Q65.74-2.22 67.31-2.22L67.31-2.22Q68.14-2.22 68.67-2.64L68.67-2.64Q68.94-2.27 68.94-1.56 68.94-0.85 68.3-0.18 67.65 0.49 66.31 0.49 64.96 0.49 63.86-0.27L63.86-0.27Q62.89 0.49 61.58 0.49 60.28 0.49 59.25-0.24L59.25-0.24Q58.18 0.49 56.96 0.49 55.73 0.49 55.03-0.12 54.32-0.73 54.32-1.88L54.32-1.88Q54.32-2.42 54.69-2.73L54.69-2.73Q55.25-2.29 55.81-2.29L55.81-2.29Q56.88-2.29 57.35-3.49L57.35-3.49 57.35-18.04Q57.35-22.78 55.03-23.54L55.03-23.54Q54.27-23.78 53.39-23.78 52.51-23.78 51.76-23.43 51-23.07 50.39-22.44L50.39-22.44Q49.05-21.02 48.8-19.07L48.8-19.07 48.8-3.49Q49.27-2.29 50.34-2.29L50.34-2.29Q50.9-2.29 51.46-2.73L51.46-2.73Q51.83-2.42 51.83-1.57 51.83-0.73 51.12-0.12 50.41 0.49 49.25 0.49 48.09 0.49 47.14-0.24L47.14-0.24Q46.21 0.49 44.87 0.49 43.53 0.49 42.38-0.29ZM59.69-15.77L59.69-6.47Q60.91-6.93 61.03-9.67L61.03-9.67Q61.18-12.4 61.18-14.82 61.18-17.24 60.98-18.81 60.79-20.39 60.42-21.28 60.06-22.17 59.56-22.57 59.06-22.97 58.47-23.27L58.47-23.27Q59.4-21.07 59.54-19.26 59.69-17.46 59.69-15.77L59.69-15.77ZM44.49-11.87Q44.5-12.67 44.52-13.22 44.53-13.77 44.53-14.11 44.53-14.45 44.53-14.81 44.53-15.16 44.52-15.75 44.5-16.33 44.49-17.04 44.48-17.75 44.43-18.43L44.43-18.43Q44.36-20.12 44.21-20.75L44.21-20.75Q43.92-22.17 43.09-22.71L43.09-22.71 43.09-21.12Q43.09-17.02 42.91-16.3 42.72-15.58 42.32-15.21 41.92-14.84 41.14-14.58L41.14-14.58Q42.6-14.06 42.8-13.35L42.8-13.35Q43.09-12.18 43.09-8.08L43.09-8.08 43.09-6.49Q44.21-7.23 44.38-9.47L44.38-9.47Q44.48-11.06 44.49-11.87ZM74.68 0.95L74.68 0.95Q72.92-0.66 72.92-3.05L72.92-3.05Q72.92-6.62 77.14-8.91L77.14-8.91Q74.38-10.84 73.12-15.01L73.12-15.01Q72.7-16.31 72.29-16.77L72.29-16.77Q71.67-17.5 70.19-18.24L70.19-18.24Q71.41-18.8 72.05-19.68 72.7-20.56 73.18-21.97 73.65-23.39 74.52-24.68 75.39-25.98 76.75-26.95L76.75-26.95Q79.76-29.05 84.49-29.05L84.49-29.05Q86.01-29.05 87.64-28.74L87.64-28.74Q87.98-31.4 90.01-33.25L90.01-33.25Q92.01-35.13 94.7-35.13L94.7-35.13Q97.85-35.13 100-33.5L100-33.5Q101.17-32.62 102.34-32.84L102.34-32.84Q102.44-30.88 100.83-30.32L100.83-30.32Q100.56-27.03 97.97-27.03L97.97-27.03Q96.94-27.03 96.72-27.17L96.72-27.17Q97.09-27.49 97.09-27.99 97.09-28.49 96.67-28.86L96.67-28.86Q96.16-27.91 94.38-27.91L94.38-27.91Q93.4-27.91 92.84-28.83L92.84-28.83Q93.77-29.13 94.31-29.72 94.84-30.32 94.84-30.83L94.84-30.83Q94.84-32.18 93.43-32.18L93.43-32.18Q90.69-32.18 90.23-27.93L90.23-27.93Q94.67-26.03 95.89-21.95L95.89-21.95Q96.7-19.19 98.87-18.24L98.87-18.24Q96.97-17.29 96.36-16.11L96.36-16.11Q96.11-15.65 95.92-15.01L95.92-15.01Q94.6-10.86 91.79-8.9 88.98-6.93 84.57-6.93L84.57-6.93Q81.76-6.93 79.68-7.62L79.68-7.62Q78.88-7.1 78.88-6.48 78.88-5.86 79.12-5.43 79.37-5 80-4.66L80-4.66Q81.25-4 84.74-3.49L84.74-3.49Q86.32-3.17 88.01-5.54L88.01-5.54Q88.11-4.3 88.57-3.67 89.03-3.05 89.59-2.98L89.59-2.98Q96.33-1.98 98.31 1.42L98.31 1.42Q98.99 2.56 98.99 4.36 98.99 6.15 97.85 7.85 96.7 9.55 94.75 10.74L94.75 10.74Q90.69 13.18 84.79 13.18L84.79 13.18Q77.85 13.18 74.19 10.91L74.19 10.91Q71.04 8.94 71.04 5.86L71.04 5.86Q71.04 3.81 73.12 1.98L73.12 1.98Q73.8 1.39 74.68 0.95ZM82.2-11.38Q82.73-10.62 83.27-10.41 83.81-10.21 84.53-10.21 85.25-10.21 85.79-10.41 86.32-10.62 86.69-11.13L86.69-11.13Q87.4-12.13 87.4-14.5L87.4-14.5 87.4-21.26Q87.4-23.63 86.86-24.39 86.32-25.15 85.79-25.35 85.25-25.56 84.53-25.56 83.81-25.56 83.27-25.35 82.73-25.15 82.39-24.66L82.39-24.66Q81.66-23.63 81.66-21.26L81.66-21.26 81.66-14.5Q81.66-12.13 82.2-11.38ZM89.77-24.71L89.77-11.55Q90.89-11.94 91.06-13.96L91.06-13.96Q91.23-15.87 91.23-18.24L91.23-18.24Q91.23-21.9 91.04-22.92L91.04-22.92Q90.74-24.29 89.77-24.71L89.77-24.71ZM77.05-11.55L77.05-11.55Q77.53-11.91 77.53-12.4L77.53-12.4Q77.53-13.04 77.36-13.62L77.36-13.62Q76.7-15.87 76.7-18.24L76.7-18.24Q76.7-20.58 77.36-22.83L77.36-22.83Q77.53-23.41 77.53-23.75L77.53-23.75 77.53-24.34Q77.53-24.56 77.34-24.71L77.34-24.71Q76.34-23.49 75.89-21.92 75.43-20.36 75.17-19.17L75.17-19.17Q75.07-18.8 73.8-18.24L73.8-18.24Q75.09-17.6 75.17-17.29L75.17-17.29 75.65-15.23Q76.29-12.65 77.05-11.55ZM75.8-2.86L75.8-2.86Q75.58-2.64 75.58-2.22L75.58-2.22Q75.68 0.42 83.1 1.76L83.1 1.76Q83.95 1.95 84.32 3.61L84.32 3.61Q84.44 3.08 85.29 2.72 86.13 2.37 86.42 2.39L86.42 2.39Q90.11 2.83 91.4 3.22L91.4 3.22Q93.7 3.93 94.75 5.32L94.75 5.32Q95.04 4.98 95.04 4.44 95.04 3.91 94.5 3.36 93.96 2.81 92.74 2.39L92.74 2.39Q90.64 1.64 87.06 1.22 83.47 0.81 82.01 0.49 80.56 0.17 79.34-0.29L79.34-0.29Q76.68-1.34 75.8-2.86ZM77.12 2.51L77.12 2.51Q75.39 3.27 75.39 5.35L75.39 5.35Q75.39 7.01 77.9 8.35L77.9 8.35Q80.71 9.86 85.15 9.86L85.15 9.86Q90.62 9.86 92.26 7.98L92.26 7.98Q92.72 7.47 92.72 6.9 92.72 6.32 92.17 5.88 91.62 5.44 90.74 5.18L90.74 5.18Q89.45 4.74 86.66 4.42L86.66 4.42Q85.32 4.27 83.34 6.4L83.34 6.4Q83.34 5.03 82.89 4.42 82.44 3.81 82 3.76L82 3.76Q79.17 3.39 77.12 2.51ZM122.89-7.37L122.89-7.37Q123.43-8.4 124.87-8.4L124.87-8.4Q125.85-8.4 126.38-7.59L126.38-7.59Q126.82-6.96 126.82-6.04 126.82-5.13 126.36-4.2 125.9-3.27 125.09-2.51 124.28-1.76 123.25-1.17 122.21-0.59 121.04-0.2L121.04-0.2Q118.62 0.61 116.01 0.61 113.4 0.61 111.11-0.26 108.83-1.12 107.19-2.69L107.19-2.69Q104-5.76 103.29-11.13L103.29-11.13Q103.12-12.33 102.73-12.84L102.73-12.84Q101.99-13.75 100.31-14.58L100.31-14.58Q102.43-15.53 103.02-17.63L103.02-17.63Q103.19-18.21 103.29-18.8L103.29-18.8Q103.9-23.1 107.63-26.12L107.63-26.12Q111.25-29.05 115.72-29.05L115.72-29.05Q120.35-29.05 123.75-25.78L123.75-25.78Q127.26-22.41 127.26-17.5L127.26-17.5Q127.26-17.33 127.25-17.16 127.24-16.99 127.26-16.85L127.26-16.85Q127.31-16.53 127.65-16.48L127.65-16.48Q128.09-15.92 128.09-15.28L128.09-15.28Q128.09-13.82 126.53-13.55L126.53-13.55Q126.14-13.48 125.31-13.35L125.31-13.35 111.54-11.16 111.54-8.81Q111.54-5.98 113.25-4.32L113.25-4.32Q114.86-2.73 117.33-2.73L117.33-2.73Q119.94-2.73 121.53-3.81L121.53-3.81Q123.01-4.83 123.01-6.49L123.01-6.49Q123.01-6.88 122.89-7.37ZM111.54-14.11L118.62-15.26 118.62-22.09Q118.62-23.71 117.99-24.46L117.99-24.46Q116.86-25.76 115.76-25.76 114.67-25.76 113.93-25.43 113.2-25.1 112.66-24.39L112.66-24.39Q111.54-22.9 111.54-19.75L111.54-19.75 111.54-14.11ZM120.72-15.63L122.23-15.87 122.23-16.63Q122.23-21.17 121.48-22.12L121.48-22.12Q121.14-22.53 120.72-22.73L120.72-22.73 120.72-15.63ZM107.56-6.47L107.56-6.47Q107.9-6.74 107.9-7.08L107.9-7.08Q107.9-7.62 107.68-8.45L107.68-8.45Q106.68-12.28 106.68-13.78 106.68-15.28 106.78-16.13 106.88-16.97 107.05-17.82L107.05-17.82Q107.34-19.48 107.68-20.75L107.68-20.75Q107.9-21.58 107.9-21.88L107.9-21.88Q107.9-22.46 107.56-22.73L107.56-22.73Q106.54-21.51 106-19.46 105.46-17.41 105.12-15.84L105.12-15.84Q105-15.19 103.68-14.58L103.68-14.58Q105-13.96 105.12-13.35L105.12-13.35Q106.02-9.23 106.61-8.11 107.19-6.98 107.56-6.47ZM135.98-0.29L135.98-0.29Q134.85 0.49 133.43 0.49 132 0.49 131.3-0.15 130.61-0.78 130.61-1.37L130.61-1.37Q130.61-2.17 130.95-2.64L130.95-2.64Q131.48-2.22 132.31-2.22L132.31-2.22Q133.73-2.22 134.34-3.86L134.34-3.86 134.34-11.38Q134.34-12.45 133.9-12.94L133.9-12.94Q133.19-13.67 131.36-14.58L131.36-14.58Q133.07-15.36 133.56-15.84L133.56-15.84Q134.34-16.65 134.34-17.82L134.34-17.82 134.34-31.62Q134.34-34.4 132.07-34.4L132.07-34.4Q131.24-34.4 130.7-33.98L130.7-33.98Q130.36-34.45 130.36-34.95 130.36-35.45 130.62-35.91 130.87-36.38 131.41-36.77L131.41-36.77Q132.56-37.6 134.32-37.6 136.07-37.6 137.05-37.38L137.05-37.38Q138.39-39.06 140.08-39.06L140.08-39.06Q142.52-39.06 142.52-36.43L142.52-36.43 142.52-17.82Q142.52-16.65 143.03-16.14L143.03-16.14Q143.79-15.36 145.5-14.58L145.5-14.58Q143.67-13.67 143.2-13.21L143.2-13.21Q142.52-12.45 142.52-11.38L142.52-11.38 142.52-3.86Q143.11-2.22 144.55-2.22L144.55-2.22Q145.38-2.22 145.91-2.64L145.91-2.64Q146.25-2.17 146.25-1.48 146.25-0.78 145.56-0.15 144.86 0.49 143.47 0.49 142.08 0.49 140.88-0.29L140.88-0.29Q139.88 0.49 138.5 0.49 137.12 0.49 135.98-0.29ZM136.68-8.08L136.68-6.49Q137.78-7.2 137.98-9.59L137.98-9.59Q138.05-10.64 138.08-11.94 138.1-13.23 138.11-13.78 138.12-14.33 138.12-14.6L138.12-14.6 138.12-16.8Q138.12-17.7 138.1-18.85L138.1-18.85 138.1-21.24Q138.03-27.71 137.86-28.44L137.86-28.44Q137.51-29.98 136.68-30.52L136.68-30.52 136.68-22.29Q136.68-17.24 136.57-16.66 136.46-16.09 136.39-15.82L136.39-15.82Q136.17-15.06 134.73-14.58L134.73-14.58Q136.2-14.06 136.39-13.35L136.39-13.35Q136.68-12.18 136.68-8.08L136.68-8.08ZM180.5-0.32L180.5-0.32Q179.23 0.49 177.68 0.49 176.13 0.49 174.81-0.32L174.81-0.32Q173.47 0.49 172.35 0.49 171.23 0.49 170.54 0.31 169.86 0.12 169.35-0.2L169.35-0.2Q168.3-0.83 168.3-1.78L168.3-1.78Q168.3-2.27 168.56-2.64L168.56-2.64Q169.1-2.22 169.99-2.22 170.88-2.22 171.8-2.69 172.71-3.15 173.18-4.13L173.18-4.13 173.18-16.02Q173.18-17.14 172.71-17.68L172.71-17.68Q171.98-18.58 170.2-19.46L170.2-19.46Q171.86-20.21 172.35-20.8L172.35-20.8Q173.18-21.75 173.18-22.95L173.18-22.95 173.18-34.28Q172.37-34.57 171.26-34.57 170.15-34.57 168.93-33.98 167.71-33.4 166.73-32.28L166.73-32.28Q164.56-29.74 164.56-25.63L164.56-25.63Q164.56-23.27 165.34-22.14L165.34-22.14Q165.05-21.53 164.24-21.53 163.44-21.53 162.8-21.9 162.17-22.27 161.7-22.9L161.7-22.9Q160.75-24.17 160.75-25.63 160.75-27.1 161.29-28.13L161.29-28.13Q160.39-29.2 160.39-30.55 160.39-31.91 161.12-32.79L161.12-32.79Q160.09-33.89 160.09-35.74L160.09-35.74Q160.09-37.89 162.07-38.62L162.07-38.62Q162.66-38.84 163.1-38.84L163.1-38.84Q163.93-38.84 164.34-38.48L164.34-38.48Q164.17-37.89 164.17-37.65L164.17-37.65Q164.17-36.67 164.85-36.67L164.85-36.67Q165.22-36.67 165.61-36.77L165.61-36.77 166.71-37.08Q169.57-37.84 171.47-37.84 173.37-37.84 174.81-37.01L174.81-37.01Q176.06-37.84 177.65-37.84 179.23-37.84 180.53-37.01L180.53-37.01Q181.92-37.84 183.41-37.84L183.41-37.84Q185.78-37.84 187.56-37.35L187.56-37.35 189.73-36.77Q190.12-36.67 190.49-36.67L190.49-36.67Q191.17-36.67 191.17-37.65L191.17-37.65Q191.17-37.89 191-38.48L191-38.48Q191.42-38.84 192.05-38.84 192.69-38.84 193.27-38.62 193.86-38.4 194.3-37.99L194.3-37.99Q195.25-37.13 195.25-35.53 195.25-33.94 194.22-32.79L194.22-32.79Q194.96-31.91 194.96-30.57 194.96-29.22 194.03-28.13L194.03-28.13Q194.59-27.12 194.59-26.12 194.59-25.12 194.35-24.32 194.1-23.51 193.64-22.9L193.64-22.9Q192.64-21.53 191.12-21.53L191.12-21.53Q190.29-21.53 190-22.14L190-22.14Q190.78-23.27 190.78-25.52 190.78-27.78 190.18-29.46 189.58-31.13 188.61-32.28L188.61-32.28Q186.63-34.57 183.94-34.57L183.94-34.57Q182.92-34.57 182.16-34.28L182.16-34.28 182.16-22.95Q182.16-21.75 182.68-21.17L182.68-21.17Q183.48-20.21 185.14-19.46L185.14-19.46Q183.36-18.58 182.87-18.02L182.87-18.02Q182.16-17.14 182.16-16.02L182.16-16.02 182.16-4.13Q182.6-3.15 183.52-2.69 184.43-2.22 185.34-2.22 186.24-2.22 186.78-2.64L186.78-2.64Q187.05-2.27 187.05-1.79 187.05-1.32 186.76-0.9 186.48-0.49 186-0.2L186-0.2Q184.87 0.49 183.37 0.49 181.87 0.49 180.5-0.32ZM175.52-9.64L175.52-6.47Q176.74-6.93 176.86-9.67L176.86-9.67Q177.01-12.4 177.01-17.24 177.01-22.07 177-23.67 176.99-25.27 176.96-26.25L176.96-26.25Q176.89-29.13 176.41-29.72 175.94-30.32 175.52-30.52L175.52-30.52Q175.52-22.02 175.23-20.85L175.23-20.85Q174.89-19.87 173.57-19.46L173.57-19.46Q175.03-18.95 175.23-18.21L175.23-18.21Q175.52-17.04 175.52-9.64L175.52-9.64ZM203.23-0.59L203.23-0.59Q201.57 1 200.03 1L200.03 1Q199.18 1 198.86 0.37L198.86 0.37Q199.42-0.2 199.42-0.76 199.42-1.32 199.25-1.61L199.25-1.61 198.93-2.17 199.32-1.44Q198.74-1.71 198.42-2.34 198.1-2.98 198.1-3.89 198.1-4.81 199.13-5.98L199.13-5.98Q198.64-6.67 198.64-7.5 198.64-8.33 198.92-8.87 199.2-9.42 199.64-9.86L199.64-9.86Q200.62-10.79 201.72-10.79L201.72-10.79Q202.45-10.79 202.77-10.28L202.77-10.28Q202.11-9.57 202.11-8.04 202.11-6.52 202.63-5.44 203.16-4.37 204.06-3.61L204.06-3.61Q205.96-2 208.75-2L208.75-2Q211.85-2 213.04-4.27L213.04-4.27Q213.39-4.96 213.39-5.65 213.39-6.35 213.07-6.9 212.75-7.45 212.24-7.96L212.24-7.96Q211.38-8.79 209.63-9.86L209.63-9.86Q207.94-11.06 205.65-11.06L205.65-11.06Q204.16-11.06 203.64-10.82L203.64-10.82Q203.96-11.55 203.96-12.28 203.96-13.01 202.99-13.88 202.01-14.75 201.24-15.63 200.47-16.5 200.01-17.38L200.01-17.38Q199.08-19.04 199.08-20.9 199.08-22.75 199.85-24.18 200.62-25.61 202.01-26.64L202.01-26.64Q204.91-28.81 209.46-28.81L209.46-28.81Q211.65-28.81 212.47-28.61 213.29-28.42 213.78-28.25L213.78-28.25Q214.44-28 215.39-28 216.34-28 216.72-28.42 217.1-28.83 217.1-29.19 217.1-29.54 217.02-29.74L217.02-29.74Q217.17-29.79 217.46-29.79 217.76-29.79 218.13-29.61 218.51-29.44 218.81-29.15L218.81-29.15Q219.39-28.49 219.39-27.75 219.39-27 219.1-26.61L219.1-26.61Q219.78-25.98 219.78-24.8 219.78-23.63 218.81-22.83L218.81-22.83Q219.03-22.39 219.03-21.75 219.03-21.12 218.34-20.53 217.66-19.95 217.05-19.95L217.05-19.95Q216-19.95 215.63-20.21L215.63-20.21Q215.95-21 215.95-21.91 215.95-22.83 215.46-23.66 214.97-24.49 214.22-25L214.22-25Q212.8-25.98 210.85-25.98L210.85-25.98Q208.38-25.98 207.53-24.41L207.53-24.41Q207.26-23.93 207.26-23.35 207.26-22.78 207.42-22.3 207.58-21.83 207.94-21.34L207.94-21.34Q208.65-20.39 209.94-19.53L209.94-19.53Q211.63-18.43 212.29-18.43L212.29-18.43Q213.7-18.43 214.75-19.12L214.75-19.12Q214.46-17.94 214.46-17.48L214.46-17.48Q214.46-16.77 215.58-15.84L215.58-15.84Q218.73-13.67 219.88-11.87L219.88-11.87Q220.98-10.11 220.98-7.96 220.98-5.81 220.03-4.28 219.07-2.76 217.44-1.66L217.44-1.66Q214.05 0.61 209.21 0.61L209.21 0.61Q205.92 0.61 203.23-0.59ZM202.38-22.95L202.38-22.95Q201.67-22.61 201.67-21.06 201.67-19.51 202.67-18.1 203.67-16.7 205.84-14.94L205.84-14.94Q206.35-14.55 206.35-14.18L206.35-14.18Q206.35-13.62 206.26-13.28L206.26-13.28Q206.55-13.35 207.28-13.43L207.28-13.43Q209.06-13.6 211.7-11.77L211.7-11.77Q215.9-9.18 215.9-6.32L215.9-6.32Q215.9-5.25 215.61-4.71L215.61-4.71Q216.49-4.88 216.95-6.2L216.95-6.2Q217.07-6.59 217.07-7.01L217.07-7.01Q217.07-8.98 214.94-11.02 212.8-13.06 208.8-14.97L208.8-14.97Q202.16-18.33 202.38-22.95ZM241.22-2.32L241.22-2.32Q238.99 0.61 234.55 0.61L234.55 0.61Q229.13 0.61 226.42-2.64L226.42-2.64Q225.25-4.03 224.81-5.74L224.81-5.74Q224.56-6.76 223.95-7.31 223.34-7.86 222.44-8.3L222.44-8.3Q224.2-9.11 224.96-11.33L224.96-11.33Q225.76-13.67 227.64-14.72L227.64-14.72Q229.67-15.82 232.11-15.88 234.55-15.94 235.72-16.04 236.89-16.14 237.8-16.36L237.8-16.36Q239.48-16.75 240.43-17.8L240.43-17.8 240.43-21.46Q240.43-23.88 239.45-25 238.46-26.12 236.44-26.12 234.43-26.12 233.46-25.38 232.5-24.63 232.5-23.39L232.5-23.39Q232.5-21.48 234.45-21.53L234.45-21.53Q234.06-19.63 232.4-19.63L232.4-19.63Q231.91-19.63 231.45-19.8L231.45-19.8 231.45-19.73Q231.45-19.09 232.04-18.92L232.04-18.92Q231.43-17.99 229.98-18.02 228.54-18.04 227.74-19.56L227.74-19.56Q227.37-19.46 226.9-19.46 226.42-19.46 225.85-19.78 225.27-20.09 224.93-20.65L224.93-20.65Q226.15-21.39 226.42-22.92L226.42-22.92Q226.71-24.8 229.42-26.73L229.42-26.73Q232.69-29.05 237.77-29.05L237.77-29.05Q246.2-29.05 248.05-23.88L248.05-23.88Q248.66-22.14 248.66-19.78L248.66-19.78 248.66-17.8Q248.66-16.6 249.26-15.84 249.86-15.09 251.3-14.6L251.3-14.6Q249.76-13.89 249.32-13.33L249.32-13.33Q248.66-12.48 248.66-11.38L248.66-11.38 248.66-4.05Q249.37-2.22 250.69-2.22L250.69-2.22Q251.52-2.22 252.06-2.64L252.06-2.64Q252.4-2.17 252.4-1.48 252.4-0.78 251.7-0.15 251.01 0.49 249.61 0.49 248.22 0.49 247.03-0.29L247.03-0.29Q245.98 0.49 245.16 0.49 244.34 0.49 243.74 0.33 243.14 0.17 242.63-0.17L242.63-0.17Q241.48-0.93 241.22-2.32ZM242.75-22.73L242.75-6.47Q244.17-7.03 244.24-11.87L244.24-11.87Q244.24-12.89 244.24-14.21 244.24-15.53 244.23-16.47 244.22-17.41 244.19-18.26L244.19-18.26Q244.1-21.34 243.63-21.94 243.17-22.53 242.75-22.73L242.75-22.73ZM233.74-8.2L233.74-8.2Q233.74-7.18 233.96-6.2 234.18-5.22 234.62-4.49L234.62-4.49Q235.6-2.95 237.38-2.95L237.38-2.95Q238.73-2.95 239.6-4.05L239.6-4.05Q240.43-5.13 240.43-6.81L240.43-6.81 240.43-14.77Q238.87-13.87 236.43-13.53L236.43-13.53Q233.74-13.11 233.74-8.2ZM230.08-2.71L230.08-2.71Q230.33-2.88 230.33-3.15L230.33-3.15Q230.33-3.52 229.98-4.17L229.98-4.17Q228.76-6.42 228.76-7.86 228.76-9.3 228.87-9.94 228.98-10.57 229.17-11.02 229.35-11.47 229.58-11.82 229.81-12.16 229.98-12.43L229.98-12.43Q230.3-12.99 230.3-13.2 230.3-13.4 230.08-13.55L230.08-13.55Q229.08-13.09 228.62-12.45L228.62-12.45Q227.79-11.33 227.4-9.55L227.4-9.55Q227.3-9.03 225.69-8.3L225.69-8.3Q227.25-7.59 227.4-7.06L227.4-7.06Q228.23-4.15 230.08-2.71ZM260.04-0.29L260.04-0.29Q258.91 0.49 257.47 0.49 256.03 0.49 255.39-0.18 254.74-0.85 254.74-1.46L254.74-1.46Q254.74-2.27 255.01-2.64L255.01-2.64Q255.54-2.22 256.37-2.22L256.37-2.22Q257.94-2.22 258.4-3.74L258.4-3.74 258.4-11.33Q258.4-12.4 257.94-12.89L257.94-12.89Q257.23-13.7 255.42-14.58L255.42-14.58Q257.13-15.36 257.59-15.82L257.59-15.82Q258.4-16.63 258.4-17.8L258.4-17.8 258.4-21.36Q258.4-23.44 256.98-23.61L256.98-23.61Q256.57-23.66 255.93-23.66 255.3-23.66 254.76-23.24L254.76-23.24Q254.42-23.71 254.42-24.21 254.42-24.71 254.68-25.33 254.93-25.95 255.45-26.51L255.45-26.51Q256.74-27.83 258.44-27.83 260.13-27.83 261.26-27.29L261.26-27.29Q262.6-28.81 263.99-28.81 265.38-28.81 265.92-28.16 266.46-27.51 266.46-26.17L266.46-26.17 266.46-23.88Q267.73-26.15 269.92-27.48 272.12-28.81 274.59-28.81 277.05-28.81 278.55-28.16 280.06-27.51 281.03-26.32L281.03-26.32Q282.94-23.95 282.94-19.43L282.94-19.43 282.94-17.82Q282.94-16.65 283.45-16.14L283.45-16.14Q284.21-15.36 285.92-14.58L285.92-14.58Q284.08-13.67 283.62-13.21L283.62-13.21Q282.94-12.45 282.94-11.38L282.94-11.38 282.94-3.74Q283.4-2.22 284.96-2.22L284.96-2.22Q285.79-2.22 286.33-2.64L286.33-2.64Q286.6-2.27 286.6-1.56 286.6-0.85 285.95-0.18 285.3 0.49 283.96 0.49 282.62 0.49 281.52-0.27L281.52-0.27Q280.54 0.49 279.24 0.49 277.93 0.49 276.91-0.24L276.91-0.24Q275.83 0.49 274.61 0.49 273.39 0.49 272.68-0.12 271.97-0.73 271.97-1.88L271.97-1.88Q271.97-2.42 272.34-2.73L272.34-2.73Q272.9-2.29 273.46-2.29L273.46-2.29Q274.54-2.29 275-3.49L275-3.49 275-18.04Q275-22.78 272.68-23.54L272.68-23.54Q271.93-23.78 271.05-23.78 270.17-23.78 269.41-23.43 268.65-23.07 268.04-22.44L268.04-22.44Q266.7-21.02 266.46-19.07L266.46-19.07 266.46-3.49Q266.92-2.29 268-2.29L268-2.29Q268.56-2.29 269.12-2.73L269.12-2.73Q269.48-2.42 269.48-1.57 269.48-0.73 268.78-0.12 268.07 0.49 266.91 0.49 265.75 0.49 264.8-0.24L264.8-0.24Q263.87 0.49 262.53 0.49 261.18 0.49 260.04-0.29ZM277.35-15.77L277.35-6.47Q278.57-6.93 278.69-9.67L278.69-9.67Q278.83-12.4 278.83-14.82 278.83-17.24 278.64-18.81 278.44-20.39 278.08-21.28 277.71-22.17 277.21-22.57 276.71-22.97 276.12-23.27L276.12-23.27Q277.05-21.07 277.2-19.26 277.35-17.46 277.35-15.77L277.35-15.77ZM262.15-11.87Q262.16-12.67 262.17-13.22 262.18-13.77 262.18-14.11 262.18-14.45 262.18-14.81 262.18-15.16 262.17-15.75 262.16-16.33 262.15-17.04 262.14-17.75 262.09-18.43L262.09-18.43Q262.01-20.12 261.87-20.75L261.87-20.75Q261.57-22.17 260.74-22.71L260.74-22.71 260.74-21.12Q260.74-17.02 260.56-16.3 260.38-15.58 259.98-15.21 259.57-14.84 258.79-14.58L258.79-14.58Q260.26-14.06 260.45-13.35L260.45-13.35Q260.74-12.18 260.74-8.08L260.74-8.08 260.74-6.49Q261.87-7.23 262.04-9.47L262.04-9.47Q262.14-11.06 262.15-11.87ZM292.33 0.95L292.33 0.95Q290.58-0.66 290.58-3.05L290.58-3.05Q290.58-6.62 294.8-8.91L294.8-8.91Q292.04-10.84 290.77-15.01L290.77-15.01Q290.36-16.31 289.94-16.77L289.94-16.77Q289.33-17.5 287.84-18.24L287.84-18.24Q289.06-18.8 289.71-19.68 290.36-20.56 290.83-21.97 291.31-23.39 292.17-24.68 293.04-25.98 294.41-26.95L294.41-26.95Q297.41-29.05 302.15-29.05L302.15-29.05Q303.66-29.05 305.3-28.74L305.3-28.74Q305.64-31.4 307.67-33.25L307.67-33.25Q309.67-35.13 312.35-35.13L312.35-35.13Q315.5-35.13 317.65-33.5L317.65-33.5Q318.82-32.62 319.99-32.84L319.99-32.84Q320.09-30.88 318.48-30.32L318.48-30.32Q318.21-27.03 315.62-27.03L315.62-27.03Q314.6-27.03 314.38-27.17L314.38-27.17Q314.75-27.49 314.75-27.99 314.75-28.49 314.33-28.86L314.33-28.86Q313.82-27.91 312.04-27.91L312.04-27.91Q311.06-27.91 310.5-28.83L310.5-28.83Q311.43-29.13 311.96-29.72 312.5-30.32 312.5-30.83L312.5-30.83Q312.5-32.18 311.08-32.18L311.08-32.18Q308.35-32.18 307.89-27.93L307.89-27.93Q312.33-26.03 313.55-21.95L313.55-21.95Q314.35-19.19 316.53-18.24L316.53-18.24Q314.62-17.29 314.01-16.11L314.01-16.11Q313.77-15.65 313.57-15.01L313.57-15.01Q312.26-10.86 309.45-8.9 306.64-6.93 302.22-6.93L302.22-6.93Q299.41-6.93 297.34-7.62L297.34-7.62Q296.53-7.1 296.53-6.48 296.53-5.86 296.78-5.43 297.02-5 297.66-4.66L297.66-4.66Q298.9-4 302.39-3.49L302.39-3.49Q303.98-3.17 305.66-5.54L305.66-5.54Q305.76-4.3 306.23-3.67 306.69-3.05 307.25-2.98L307.25-2.98Q313.99-1.98 315.97 1.42L315.97 1.42Q316.65 2.56 316.65 4.36 316.65 6.15 315.5 7.85 314.35 9.55 312.4 10.74L312.4 10.74Q308.35 13.18 302.44 13.18L302.44 13.18Q295.51 13.18 291.85 10.91L291.85 10.91Q288.7 8.94 288.7 5.86L288.7 5.86Q288.7 3.81 290.77 1.98L290.77 1.98Q291.45 1.39 292.33 0.95ZM299.85-11.38Q300.39-10.62 300.93-10.41 301.46-10.21 302.18-10.21 302.9-10.21 303.44-10.41 303.98-10.62 304.35-11.13L304.35-11.13Q305.05-12.13 305.05-14.5L305.05-14.5 305.05-21.26Q305.05-23.63 304.52-24.39 303.98-25.15 303.44-25.35 302.9-25.56 302.18-25.56 301.46-25.56 300.93-25.35 300.39-25.15 300.05-24.66L300.05-24.66Q299.32-23.63 299.32-21.26L299.32-21.26 299.32-14.5Q299.32-12.13 299.85-11.38ZM307.42-24.71L307.42-11.55Q308.54-11.94 308.72-13.96L308.72-13.96Q308.89-15.87 308.89-18.24L308.89-18.24Q308.89-21.9 308.69-22.92L308.69-22.92Q308.4-24.29 307.42-24.71L307.42-24.71ZM294.7-11.55L294.7-11.55Q295.19-11.91 295.19-12.4L295.19-12.4Q295.19-13.04 295.02-13.62L295.02-13.62Q294.36-15.87 294.36-18.24L294.36-18.24Q294.36-20.58 295.02-22.83L295.02-22.83Q295.19-23.41 295.19-23.75L295.19-23.75 295.19-24.34Q295.19-24.56 294.99-24.71L294.99-24.71Q293.99-23.49 293.54-21.92 293.09-20.36 292.82-19.17L292.82-19.17Q292.72-18.8 291.45-18.24L291.45-18.24Q292.75-17.6 292.82-17.29L292.82-17.29 293.31-15.23Q293.94-12.65 294.7-11.55ZM293.46-2.86L293.46-2.86Q293.24-2.64 293.24-2.22L293.24-2.22Q293.33 0.42 300.76 1.76L300.76 1.76Q301.61 1.95 301.98 3.61L301.98 3.61Q302.1 3.08 302.94 2.72 303.78 2.37 304.08 2.39L304.08 2.39Q307.76 2.83 309.06 3.22L309.06 3.22Q311.35 3.93 312.4 5.32L312.4 5.32Q312.69 4.98 312.69 4.44 312.69 3.91 312.16 3.36 311.62 2.81 310.4 2.39L310.4 2.39Q308.3 1.64 304.71 1.22 301.12 0.81 299.67 0.49 298.22 0.17 297-0.29L297-0.29Q294.34-1.34 293.46-2.86ZM294.77 2.51L294.77 2.51Q293.04 3.27 293.04 5.35L293.04 5.35Q293.04 7.01 295.56 8.35L295.56 8.35Q298.36 9.86 302.81 9.86L302.81 9.86Q308.28 9.86 309.91 7.98L309.91 7.98Q310.38 7.47 310.38 6.9 310.38 6.32 309.83 5.88 309.28 5.44 308.4 5.18L308.4 5.18Q307.1 4.74 304.32 4.42L304.32 4.42Q302.98 4.27 301 6.4L301 6.4Q301 5.03 300.55 4.42 300.1 3.81 299.66 3.76L299.66 3.76Q296.83 3.39 294.77 2.51Z" opacity="1" transform="matrix(1,0,0,1,0,0)" fill="#374151" class="undefined-text-0" data-fill-palette-color="primary" id="text-0"></path></svg></g></svg></g><g transform="matrix(1,0,0,1,0,49.06353500140418)"><svg viewBox="0 0 244.43135999999998 24.530259167614112" height="24.530259167614112" width="244.43135999999998"><g transform="matrix(1,0,0,1,0,0)"><svg width="244.43135999999998" viewBox="2.6500000953674316 -41.20000076293945 416.02001953125 41.75" height="24.530259167614112" data-palette-color="#374151"><path d="M6.95-2.6L6.95-34.45 2.95-35 2.95-37.15 9-37.15Q10.1-37.15 11.18-37.23 12.25-37.3 12.75-37.3L12.75-37.3Q15.35-37.5 17.75-37.5L17.75-37.5Q24.8-37.5 27.73-34.88 30.65-32.25 30.65-27L30.65-27Q30.65-23.05 28.75-20.15 26.85-17.25 23.6-15.73 20.35-14.2 16.35-14.2L16.35-14.2Q14.75-14.2 13.08-14.28 11.4-14.35 11.05-14.4L11.05-14.4 11.05-2.65 18-2.15 18 0 2.65 0 2.65-2.15 6.95-2.6ZM11.05-16.85Q12.3-16.65 16.45-16.65L16.45-16.65Q20.75-16.65 23.5-19.07 26.25-21.5 26.25-27L26.25-27Q26.25-31.35 23.9-33.23 21.55-35.1 16.5-35.1L16.5-35.1Q14.95-35.1 13.05-34.9L13.05-34.9Q11.55-34.8 11.05-34.8L11.05-34.8 11.05-16.85ZM59.86-14.05Q59.86-18.4 61.68-21.7 63.51-25 66.48-26.75 69.46-28.5 72.71-28.5L72.71-28.5Q79.01-28.5 82.03-24.4 85.06-20.3 85.06-13.9L85.06-13.9Q85.06-9.55 83.23-6.25 81.41-2.95 78.43-1.2 75.46 0.55 72.21 0.55L72.21 0.55Q65.91 0.55 62.88-3.55 59.86-7.65 59.86-14.05L59.86-14.05ZM72.46-2.05Q76.31-2.05 78.41-5 80.51-7.95 80.51-13.6L80.51-13.6Q80.51-19 78.56-22.45 76.61-25.9 72.51-25.9L72.51-25.9Q68.66-25.9 66.53-22.95 64.41-20 64.41-14.35L64.41-14.35Q64.41-8.9 66.38-5.48 68.36-2.05 72.46-2.05L72.46-2.05ZM115.37 0L115.37-2.1 119.37-2.4 119.37-24.45 115.52-25.3 115.52-27.55 121.87-28.35 121.97-28.35 122.92-27.55 122.92-26.75 122.82-22.95 122.92-22.95Q123.02-23.05 124.24-24.48 125.47-25.9 127.89-27.2 130.32-28.5 132.77-28.5L132.77-28.5Q133.57-28.5 134.27-28.3L134.27-28.3 134.27-23.9Q134.07-24.05 133.39-24.2 132.72-24.35 131.97-24.35L131.97-24.35Q129.12-24.35 127.12-23.5 125.12-22.65 123.42-21.4L123.42-21.4 123.42-2.45 130.07-2.05 130.07 0 115.37 0ZM171.88 0.55Q169.23 0.55 167.88-0.68 166.53-1.9 166.53-5.05L166.53-5.05 166.53-24.8 162.73-24.8 162.73-26.75Q165.23-27.3 165.63-27.55L165.63-27.55Q166.38-27.95 166.73-29.1L166.73-29.1Q167.03-29.85 167.53-31.8 168.03-33.75 168.28-34.85L168.28-34.85 170.58-34.85 170.58-27.75 179.43-27.75 179.43-24.8 170.58-24.8 170.58-8.6Q170.58-5.7 170.78-4.53 170.98-3.35 171.58-3 172.18-2.65 173.68-2.65L173.68-2.65Q175.13-2.65 176.93-3.05 178.73-3.45 179.63-3.9L179.63-3.9 180.28-2Q179.13-1.1 176.48-0.28 173.83 0.55 171.88 0.55L171.88 0.55ZM213.43-2.55L213.43-24.75 208.38-24.75 208.38-26.75 213.43-27.7 213.43-30.15Q213.43-33.15 214.98-35.68 216.53-38.2 219.01-39.7 221.48-41.2 224.18-41.2L224.18-41.2Q225.78-41.2 226.98-40.8L226.98-40.8 226.98-36.7Q226.58-37 225.36-37.3 224.13-37.6 222.53-37.6L222.53-37.6Q219.88-37.6 218.68-36.2 217.48-34.8 217.48-31.45L217.48-31.45 217.48-27.7 224.73-27.7 224.73-24.75 217.48-24.75 217.48-2.5 223.18-2.15 223.18 0 209.03 0 209.03-2.15 213.43-2.55ZM254.39-14.05Q254.39-18.4 256.22-21.7 258.04-25 261.02-26.75 263.99-28.5 267.24-28.5L267.24-28.5Q273.54-28.5 276.57-24.4 279.59-20.3 279.59-13.9L279.59-13.9Q279.59-9.55 277.77-6.25 275.94-2.95 272.97-1.2 269.99 0.55 266.74 0.55L266.74 0.55Q260.44 0.55 257.42-3.55 254.39-7.65 254.39-14.05L254.39-14.05ZM266.99-2.05Q270.84-2.05 272.94-5 275.04-7.95 275.04-13.6L275.04-13.6Q275.04-19 273.09-22.45 271.14-25.9 267.04-25.9L267.04-25.9Q263.19-25.9 261.07-22.95 258.94-20 258.94-14.35L258.94-14.35Q258.94-8.9 260.92-5.48 262.89-2.05 266.99-2.05L266.99-2.05ZM313.8-2.55L313.8-37.8 309.55-38.25 309.55-40.1 316.85-40.95 316.9-40.95 317.85-40.3 317.85-2.5 322.55-2.15 322.55 0 309.4 0 309.4-2.15 313.8-2.55ZM357.56-33Q354.86-33 354.86-35.85L354.86-35.85Q354.86-37.3 355.71-38.23 356.56-39.15 358.01-39.15L358.01-39.15Q359.51-39.15 360.16-38.33 360.81-37.5 360.81-36.3L360.81-36.3Q360.81-34.75 359.98-33.88 359.16-33 357.61-33L357.61-33 357.56-33ZM355.96-2.55L355.96-24.45 352.06-25.3 352.06-27.55 358.91-28.35 359.01-28.35 360.01-27.55 360.01-2.5 364.36-2.15 364.36 0 351.56 0 351.56-2.15 355.96-2.55ZM393.47-14.05Q393.47-18.4 395.29-21.7 397.12-25 400.09-26.75 403.07-28.5 406.32-28.5L406.32-28.5Q412.62-28.5 415.64-24.4 418.67-20.3 418.67-13.9L418.67-13.9Q418.67-9.55 416.84-6.25 415.02-2.95 412.04-1.2 409.07 0.55 405.82 0.55L405.82 0.55Q399.52 0.55 396.49-3.55 393.47-7.65 393.47-14.05L393.47-14.05ZM406.07-2.05Q409.92-2.05 412.02-5 414.12-7.95 414.12-13.6L414.12-13.6Q414.12-19 412.17-22.45 410.22-25.9 406.12-25.9L406.12-25.9Q402.27-25.9 400.14-22.95 398.02-20 398.02-14.35L398.02-14.35Q398.02-8.9 399.99-5.48 401.97-2.05 406.07-2.05L406.07-2.05Z" opacity="1" transform="matrix(1,0,0,1,0,0)" fill="#374151" class="undefined-text-1" data-fill-palette-color="secondary" id="text-1"></path></svg></g></svg></g></svg></g></svg></g><g transform="matrix(1,0,0,1,253.80191900202857,0)"><svg viewBox="0 0 152.55961199572602 152.55993531237496" height="152.55993531237496" width="152.55961199572602"><g><svg xmlns:dc="http://purl.org/dc/elements/1.1/" xmlns:cc="http://creativecommons.org/ns#" xmlns:rdf="http://www.w3.org/1999/02/22-rdf-syntax-ns#" xmlns:svg="http://www.w3.org/2000/svg" xmlns="http://www.w3.org/2000/svg" xmlns:sodipodi="http://sodipodi.sourceforge.net/DTD/sodipodi-0.dtd" xmlns:inkscape="http://www.inkscape.org/namespaces/inkscape" version="1.1" x="0" y="0" viewBox="5.000085830688477 4.999997615814209 89.99980926513672 90" height="152.55993531237496" width="152.55961199572602" class="icon-icon-0" data-fill-palette-color="accent" id="icon-0"><path d="M9.959 5C6.251 6.004 8.124 15.162 7.724 13.949 5.378 9.623 3.782 17.093 6.214 18.757c0.65 0.675-1.571 1.301-0.357 2.313 3.035 2.178 2.037 6.379 5.888 7.729-1.772 2.646 2.56 4.814 4.753 5.499-0.689 1.064 0.416 2.677 1.567 3.434 0.95 0.969 3.491 0.697 2.684 2.659 1.465 1.934 4.487 1 3.583 3.848 0.37 1.965 5.09 2.158 4.284 3.839-0.473 3.083 4.199 2.689 2.853 5.236 2.507 0.471 2.42 3.71 5.387 3.075-0.363 1.967-3.784 0.883-3.453 2.908 0.262 1.395-2.218 2.629-0.928 4 2.73-0.104 3.659-3.527 5.977-4.414 1.696 5.162 2.085 10.709 1.683 16.113 2.446 1.411 2.548-5.337 3.885-7.214 1.67-3.894 3.449-7.756 5.957-11.142 1.791-3.436-1.031 6.417-0.997 5.23-0.482 5.535-2.038 11.07-4.84 15.798-1.949 3.145-4.845 5.385-7.747 7.406-3.118 1.409-6.104 4.465-9.731 2.779-2.055-1.123-4.874-1.794-6.51 0.449-2.351 2.618-5.904 3.836-9.324 3.203-2.147 0.815 0.367 2.108 1.776 1.534 5.332 0.324 10.857-2.775 15.968 0.074 4.734 0.816 8.821-2.922 13.568-2.466 1.966 0.447 7.328-1.572 6.688 1.853-0.589 2.853 2.489 1.221 2.823-0.603 2.058-3.529 0.598 6.097 3.255 2.122 0.195-3.369 2.487-5.192 5.669-4.488 2.405 0.079 3.005-2.704 5.413-2.872 0.632-5.254-3.878-9.17-3.874-14.356-1.249-5.192-1.686-10.582-1.451-15.927-0.786-3.3 2.855 3.953 2.42 2.671 1.871 2.432 3.726 4.877 5.64 7.254 0.898 2.806 1.779 5.636 2.689 8.427 2.956 1.317 0.209-4.643 0.525-6.359 0.722-2.773-0.804-8.277 0.409-9.619 0.819 1.118 1.41 2.531 2.924 2.853 3.51-0.031-0.431-4.04-0.011-4.027 1.204-1.856-4.384-1.352-2.785-2.876 0.546-1.923 2.61-2.66 2.694-4.577 2.562-1.656 0.009-4.419 3.353-5.154-0.861-2.421 2.963-2.132 2.957-4.524 1.741-1.772 5.068-2.305 6.346-4.732-1.007-2.532 1.945-2.785 2.301-5.371-1.544-0.47 1.385-2.116 0.786-1.659 2.012-0.971 2.184-2.77 1.167-3.746 0.783-1.165 4.766-5.077 1.897-5.515-1.093-0.765 0.472-5.603-2.564-5.716-0.038-1.701 0.036-7.664-2.23-5.39-0.596 3.515-1.328 7.07-3.073 10.204-1.918 3.349-5.586 4.84-8.849 6.378-3.869 1.546-10.319 4.671-11.185 5.628-0.867 0.957-1.033 2.368-1.895 4.558-0.862 2.19-2.896 6.908-4.251 7.875-5.259 1.439-5.062-3.494-5.062-3.495 0 0 1.242 3.235 1.187 1.321-0.013-0.447 0.174 0.902 0.918 1.185 1.184 0.45-0.132-2.905 0.398-1.981 2.184 3.804 1.388 0.645 0.679-1.832-1.175-1.804-0.702-0.066-1.471-4.057-0.769-3.991-6.104-3.489-6.805 0.373-0.365 2.636-2.036 4.218-1.885 6.927 2.134-2.229-0.337 3.238 2.031 0.052 2.122 0.982 0.729 0.042 1.877-1.689 1.929 3.03-2.679 4.243-4.571 4.52C43.317 41.264 43.363 35.486 40.963 31.421 37.964 27.776 33.245 27.14 29.296 25.177 25.95 24.038 22.845 22.258 19.81 20.422 16.588 17.653 12.546 15.19 11.31 10.756 10.826 8.92 11.415 6.378 9.959 5z" fill="#374151" fill-opacity="1" fill-rule="nonzero" stroke="none" marker="none" visibility="visible" display="inline" overflow="visible" text-indent="0" text-transform="none" direction="ltr" block-progression="tb" baseline-shift="baseline" color="#374151" enable-background="accumulate" data-fill-palette-color="accent"></path></svg></g></svg></g></svg></g></svg></g></svg></g><g><path d="M245.816 0c68.262 0 123.6 55.338 123.6 123.6 0 68.262-55.338 123.6-123.6 123.6-50.969 0-94.733-30.851-113.635-74.898h1.172c18.836 43.437 62.101 73.822 112.463 73.821 67.668 0 122.523-54.856 122.523-122.523 0-67.668-54.856-122.523-122.523-122.523-50.361 0-93.626 30.385-112.463 73.821l-1.172 0c18.902-44.047 62.666-74.898 113.635-74.898z" fill="#374151" stroke="transparent" data-fill-palette-color="tertiary"></path></g></svg></g><defs></defs></svg><rect width="395.52" height="247.2" fill="none" stroke="none" visibility="hidden"></rect></g></svg></g></svg>